<svg width="369" height="95" viewBox="0 0 369 95" fill="none" xmlns="http://www.w3.org/2000/svg">
<g opacity="0.8">
<path d="M77.7438 32.6286C77.1422 23.9621 71.6751 20.2502 65.2448 16.2956C58.8768 12.3798 52.3935 8.64519 45.9476 4.86856C43.2452 3.72942 40.4399 3.22133 37.5131 3.45758C34.3151 3.71323 32.0459 4.81354 29.303 6.3572C22.6701 10.095 14.9993 14.5189 8.69052 18.7356C4.13975 21.7809 0.670565 26.6967 0.227956 32.47C-0.488947 41.842 0.764074 52.1493 0.218605 61.6184C0.923039 68.3238 4.34547 72.7153 9.68795 76.1295C16.8383 80.699 24.3533 84.7216 31.5877 89.1584C36.9894 91.6762 42.3382 91.3202 47.5404 88.55C55.6258 84.2459 63.68 78.6635 71.5161 73.8707C74.9915 70.7574 77.1827 66.5374 77.7313 61.777C77.2388 52.2756 78.3952 42.0459 77.7407 32.6319L77.7438 32.6286ZM72.1613 61.6184C71.9026 65.8708 70.1041 68.2591 66.7814 70.4371C60.3542 74.6441 53.313 78.1683 46.8609 82.3754C44.7164 83.3495 42.2696 82.3204 41.4592 80.0712C40.8919 70.1199 41.3813 60.0197 41.2098 50.0167C41.3532 48.5054 41.9454 47.253 42.8836 46.1268C50.1056 41.868 57.3464 36.8033 64.7117 32.8551C65.3133 32.5348 66.024 32.0429 66.691 31.9296C68.6391 31.606 70.7181 32.4733 71.6002 34.3664C72.4075 36.0978 72.3016 41.8 72.1613 43.9003C72.1613 49.0284 69.3919 50.9296 68.0189 52.8192C72.2436 53.7813 72.4013 57.7026 72.1613 61.6184Z" fill="#1A0800"/>
<path d="M117.025 66.6273V25.1788H132.936C136.865 25.1788 140.008 26.1048 142.365 27.957C144.741 29.7904 145.929 32.4096 145.929 35.8145C145.929 37.6479 145.462 39.2943 144.526 40.7535C143.591 42.1941 142.375 43.2698 140.878 43.9807C143.011 44.7852 144.713 46.0761 145.985 47.8534C147.258 49.6307 147.894 51.7915 147.894 54.3359C147.894 58.2646 146.603 61.2954 144.021 63.4282C141.439 65.5609 137.941 66.6273 133.526 66.6273H117.025ZM132.319 59.8362C137.483 59.8362 140.064 57.8811 140.064 53.9711C140.064 52.0254 139.419 50.5474 138.128 49.5372C136.837 48.5082 134.901 47.9937 132.319 47.9937H124.742V59.8362H132.319ZM131.926 41.399C134.003 41.399 135.565 40.978 136.613 40.1362C137.66 39.2756 138.184 38.0502 138.184 36.46C138.184 34.851 137.642 33.6163 136.556 32.7557C135.49 31.8951 133.9 31.4648 131.786 31.4648H124.742V41.399H131.926ZM179.997 36.7967V66.6273H172.757V62.025C171.747 63.5966 170.419 64.8313 168.772 65.7293C167.126 66.6273 165.274 67.0763 163.216 67.0763C159.998 67.0763 157.388 66.0941 155.386 64.1297C153.403 62.1654 152.412 59.5649 152.412 56.3283V36.7967H159.596V54.6726C159.596 56.4499 160.12 57.8905 161.167 58.9943C162.215 60.0981 163.609 60.65 165.349 60.65C167.706 60.65 169.53 59.7052 170.821 57.8156C172.112 55.9261 172.757 53.2882 172.757 49.902V36.7967H179.997ZM186.34 66.6273V36.7967H193.58V66.6273H186.34ZM186.031 24.7298H193.917V32.3067H186.031V24.7298ZM199.866 66.6273V24.7298H207.106V66.6273H199.866ZM226.132 67.0763C221.736 67.0763 218.256 65.6638 215.693 62.8389C213.149 60.0139 211.877 56.3003 211.877 51.698C211.877 47.1144 213.149 43.4101 215.693 40.5852C218.256 37.7602 221.699 36.3477 226.02 36.3477C227.835 36.3477 229.5 36.6938 231.015 37.386C232.549 38.0782 233.756 39.0137 234.635 40.1923V24.7298H241.876V66.6273H234.635V63.1195C233.925 64.2794 232.793 65.2335 231.24 65.9819C229.706 66.7115 228.003 67.0763 226.132 67.0763ZM227.171 60.8183C229.565 60.8183 231.483 59.9858 232.924 58.3208C234.383 56.6557 235.113 54.4481 235.113 51.698C235.113 48.9665 234.383 46.7683 232.924 45.1033C231.483 43.4382 229.565 42.6057 227.171 42.6057C224.795 42.6057 222.877 43.4382 221.418 45.1033C219.977 46.7683 219.257 48.9665 219.257 51.698C219.257 54.4294 219.977 56.637 221.418 58.3208C222.877 59.9858 224.795 60.8183 227.171 60.8183ZM259.387 67.0763C255.57 67.0763 252.455 66.0754 250.042 64.0736C247.647 62.0718 246.375 59.4713 246.225 56.2722H253.297C253.391 57.4695 253.999 58.5453 255.121 59.4994C256.262 60.4535 257.684 60.9306 259.387 60.9306C260.827 60.9306 261.997 60.65 262.895 60.0887C263.811 59.5088 264.27 58.7604 264.27 57.8437C264.27 56.3283 263.194 55.3648 261.042 54.9532L256.384 53.9711C255.131 53.7091 254.017 53.3724 253.045 52.9608C252.072 52.5305 251.155 51.9786 250.294 51.3051C249.434 50.6129 248.77 49.7242 248.302 48.6391C247.834 47.5541 247.6 46.3099 247.6 44.9068C247.6 42.4934 248.62 40.4636 250.659 38.8172C252.698 37.1709 255.392 36.3477 258.741 36.3477C262.034 36.3477 264.812 37.1989 267.076 38.9014C269.358 40.6039 270.687 42.9144 271.061 45.8329H263.989C263.821 44.6917 263.222 43.7937 262.193 43.1389C261.183 42.4841 260.032 42.1567 258.741 42.1567C257.563 42.1567 256.609 42.4092 255.879 42.9144C255.149 43.4008 254.784 44.0649 254.784 44.9068C254.784 46.2725 255.86 47.1705 258.012 47.6008L262.67 48.583C264.054 48.8637 265.242 49.2098 266.234 49.6213C267.226 50.0142 268.152 50.5474 269.012 51.2209C269.873 51.8944 270.518 52.7737 270.949 53.8588C271.398 54.9252 271.622 56.1974 271.622 57.6753C271.622 60.3132 270.481 62.5395 268.198 64.3542C265.935 66.169 262.997 67.0763 259.387 67.0763ZM294.886 36.7967H302.182L289.891 68.6478C289.517 69.6394 289.114 70.5374 288.684 71.3418C288.254 72.165 287.702 72.9882 287.028 73.8114C286.374 74.6532 285.644 75.3548 284.84 75.9161C284.035 76.4773 283.062 76.9357 281.921 77.2911C280.799 77.6466 279.564 77.8243 278.217 77.8243C276.739 77.8243 275.364 77.6185 274.092 77.2069V71.0051C275.083 71.3793 276.149 71.5663 277.291 71.5663C278.844 71.5663 280.078 71.1548 280.995 70.3316C281.93 69.5271 282.81 68.0585 283.633 65.9258L283.745 65.7013L272.071 36.7967H280.069L287.365 56.2161L294.886 36.7967ZM305.55 66.6273V36.7967H312.79V41.399C313.8 39.8275 315.129 38.5927 316.775 37.6947C318.421 36.7967 320.273 36.3477 322.331 36.3477C325.549 36.3477 328.15 37.3299 330.133 39.2943C332.135 41.2587 333.135 43.8591 333.135 47.0957V66.6273H325.951V48.7514C325.951 46.9741 325.428 45.5335 324.38 44.4297C323.332 43.326 321.938 42.7741 320.199 42.7741C317.841 42.7741 316.017 43.7188 314.726 45.6084C313.435 47.4979 312.79 50.1358 312.79 53.5221V66.6273H305.55ZM352.555 67.0763C348.158 67.0763 344.566 65.6545 341.779 62.8108C338.991 59.9671 337.597 56.2628 337.597 51.698C337.597 47.1518 338.991 43.4569 341.779 40.6132C344.566 37.7695 348.158 36.3477 352.555 36.3477C356.334 36.3477 359.449 37.3392 361.9 39.3223C364.369 41.2867 365.847 44.1211 366.334 47.8253H359.262C358.981 46.2912 358.233 45.0378 357.017 44.0649C355.801 43.0921 354.351 42.6057 352.667 42.6057C350.366 42.6057 348.514 43.4382 347.111 45.1033C345.726 46.7496 345.034 48.9478 345.034 51.698C345.034 54.4855 345.726 56.7025 347.111 58.3488C348.514 59.9952 350.366 60.8183 352.667 60.8183C354.388 60.8183 355.829 60.3506 356.989 59.4152C358.149 58.4611 358.888 57.1328 359.206 55.4303H366.334C365.772 59.2843 364.276 62.1934 361.844 64.1578C359.411 66.1035 356.315 67.0763 352.555 67.0763Z" fill="#1A0800"/>
</g>
</svg>
